<mxfile host="Electron" agent="Mozilla/5.0 (Windows NT 10.0; Win64; x64) AppleWebKit/537.36 (KHTML, like Gecko) draw.io/26.0.16 Chrome/132.0.6834.196 Electron/34.2.0 Safari/537.36" version="26.0.16">
  <diagram name="Page-1" id="e7e014a7-5840-1c2e-5031-d8a46d1fe8dd">
    <mxGraphModel dx="1036" dy="710" grid="1" gridSize="10" guides="1" tooltips="1" connect="1" arrows="1" fold="1" page="1" pageScale="1" pageWidth="1169" pageHeight="826" background="none" math="0" shadow="0">
      <root>
        <mxCell id="0" />
        <mxCell id="1" parent="0" />
        <mxCell id="Y8Q3fPFExiWNxJeJG4X3-41" value="Hardware" style="swimlane;horizontal=0;whiteSpace=wrap;html=1;" vertex="1" parent="1">
          <mxGeometry x="80" y="420" width="760" height="100" as="geometry" />
        </mxCell>
        <mxCell id="Y8Q3fPFExiWNxJeJG4X3-42" value="EEPROM" style="rounded=0;whiteSpace=wrap;html=1;" vertex="1" parent="Y8Q3fPFExiWNxJeJG4X3-41">
          <mxGeometry x="40" y="20" width="80" height="60" as="geometry" />
        </mxCell>
        <mxCell id="Y8Q3fPFExiWNxJeJG4X3-43" value="Temperature Sensor" style="rounded=0;whiteSpace=wrap;html=1;" vertex="1" parent="Y8Q3fPFExiWNxJeJG4X3-41">
          <mxGeometry x="140" y="20" width="80" height="60" as="geometry" />
        </mxCell>
        <mxCell id="Y8Q3fPFExiWNxJeJG4X3-44" value="Microcontroller" style="rounded=0;whiteSpace=wrap;html=1;" vertex="1" parent="Y8Q3fPFExiWNxJeJG4X3-41">
          <mxGeometry x="240" y="20" width="400" height="60" as="geometry" />
        </mxCell>
        <mxCell id="Y8Q3fPFExiWNxJeJG4X3-45" value="LED" style="rounded=0;whiteSpace=wrap;html=1;" vertex="1" parent="Y8Q3fPFExiWNxJeJG4X3-41">
          <mxGeometry x="660" y="20" width="80" height="60" as="geometry" />
        </mxCell>
        <mxCell id="Y8Q3fPFExiWNxJeJG4X3-46" value="SW Drivers" style="swimlane;horizontal=0;whiteSpace=wrap;html=1;" vertex="1" parent="1">
          <mxGeometry x="80" y="300" width="760" height="120" as="geometry" />
        </mxCell>
        <mxCell id="Y8Q3fPFExiWNxJeJG4X3-48" value="IÂ²C" style="rounded=0;whiteSpace=wrap;html=1;" vertex="1" parent="Y8Q3fPFExiWNxJeJG4X3-46">
          <mxGeometry x="40" y="40" width="80" height="60" as="geometry" />
        </mxCell>
        <mxCell id="Y8Q3fPFExiWNxJeJG4X3-66" value="" style="edgeStyle=orthogonalEdgeStyle;rounded=0;orthogonalLoop=1;jettySize=auto;html=1;" edge="1" parent="Y8Q3fPFExiWNxJeJG4X3-46" source="Y8Q3fPFExiWNxJeJG4X3-49" target="Y8Q3fPFExiWNxJeJG4X3-50">
          <mxGeometry relative="1" as="geometry" />
        </mxCell>
        <mxCell id="Y8Q3fPFExiWNxJeJG4X3-49" value="Timer" style="rounded=0;whiteSpace=wrap;html=1;" vertex="1" parent="Y8Q3fPFExiWNxJeJG4X3-46">
          <mxGeometry x="260" y="40" width="80" height="60" as="geometry" />
        </mxCell>
        <mxCell id="Y8Q3fPFExiWNxJeJG4X3-69" style="edgeStyle=orthogonalEdgeStyle;rounded=0;orthogonalLoop=1;jettySize=auto;html=1;exitX=0.5;exitY=0;exitDx=0;exitDy=0;entryX=0.25;entryY=0;entryDx=0;entryDy=0;" edge="1" parent="Y8Q3fPFExiWNxJeJG4X3-46" source="Y8Q3fPFExiWNxJeJG4X3-50" target="Y8Q3fPFExiWNxJeJG4X3-51">
          <mxGeometry relative="1" as="geometry" />
        </mxCell>
        <mxCell id="Y8Q3fPFExiWNxJeJG4X3-50" value="ADC" style="rounded=0;whiteSpace=wrap;html=1;" vertex="1" parent="Y8Q3fPFExiWNxJeJG4X3-46">
          <mxGeometry x="140" y="40" width="80" height="60" as="geometry" />
        </mxCell>
        <mxCell id="Y8Q3fPFExiWNxJeJG4X3-51" value="DMA" style="rounded=0;whiteSpace=wrap;html=1;" vertex="1" parent="Y8Q3fPFExiWNxJeJG4X3-46">
          <mxGeometry x="360" y="40" width="80" height="60" as="geometry" />
        </mxCell>
        <mxCell id="Y8Q3fPFExiWNxJeJG4X3-52" value="GPIO" style="rounded=0;whiteSpace=wrap;html=1;" vertex="1" parent="Y8Q3fPFExiWNxJeJG4X3-46">
          <mxGeometry x="660" y="40" width="80" height="60" as="geometry" />
        </mxCell>
        <mxCell id="Y8Q3fPFExiWNxJeJG4X3-59" value="ISR" style="swimlane;horizontal=0;whiteSpace=wrap;html=1;" vertex="1" parent="1">
          <mxGeometry x="80" y="200" width="760" height="100" as="geometry" />
        </mxCell>
        <mxCell id="Y8Q3fPFExiWNxJeJG4X3-61" value="Temp Data Processing" style="rounded=0;whiteSpace=wrap;html=1;" vertex="1" parent="Y8Q3fPFExiWNxJeJG4X3-59">
          <mxGeometry x="360" y="20" width="80" height="60" as="geometry" />
        </mxCell>
        <mxCell id="Y8Q3fPFExiWNxJeJG4X3-80" style="edgeStyle=orthogonalEdgeStyle;rounded=0;orthogonalLoop=1;jettySize=auto;html=1;exitX=1;exitY=0.5;exitDx=0;exitDy=0;entryX=0;entryY=0.5;entryDx=0;entryDy=0;" edge="1" parent="Y8Q3fPFExiWNxJeJG4X3-59" source="Y8Q3fPFExiWNxJeJG4X3-78" target="Y8Q3fPFExiWNxJeJG4X3-61">
          <mxGeometry relative="1" as="geometry" />
        </mxCell>
        <mxCell id="Y8Q3fPFExiWNxJeJG4X3-78" value="Gain Factor" style="rounded=0;whiteSpace=wrap;html=1;" vertex="1" parent="Y8Q3fPFExiWNxJeJG4X3-59">
          <mxGeometry x="40" y="20" width="80" height="60" as="geometry" />
        </mxCell>
        <mxCell id="Y8Q3fPFExiWNxJeJG4X3-60" value="Main (optional)" style="swimlane;horizontal=0;whiteSpace=wrap;html=1;opacity=50;" vertex="1" parent="1">
          <mxGeometry x="80" y="90" width="760" height="100" as="geometry" />
        </mxCell>
        <mxCell id="Y8Q3fPFExiWNxJeJG4X3-74" value="Command Handler" style="rounded=0;whiteSpace=wrap;html=1;opacity=50;" vertex="1" parent="Y8Q3fPFExiWNxJeJG4X3-60">
          <mxGeometry x="40" y="20" width="80" height="60" as="geometry" />
        </mxCell>
        <mxCell id="Y8Q3fPFExiWNxJeJG4X3-75" value="Error Handler" style="rounded=0;whiteSpace=wrap;html=1;opacity=50;" vertex="1" parent="Y8Q3fPFExiWNxJeJG4X3-60">
          <mxGeometry x="240" y="20" width="80" height="60" as="geometry" />
        </mxCell>
        <mxCell id="Y8Q3fPFExiWNxJeJG4X3-76" value="Temperature Logging" style="rounded=0;whiteSpace=wrap;html=1;opacity=50;" vertex="1" parent="Y8Q3fPFExiWNxJeJG4X3-60">
          <mxGeometry x="450" y="20" width="80" height="60" as="geometry" />
        </mxCell>
        <mxCell id="Y8Q3fPFExiWNxJeJG4X3-77" value="Display Output" style="rounded=0;whiteSpace=wrap;html=1;opacity=50;" vertex="1" parent="Y8Q3fPFExiWNxJeJG4X3-60">
          <mxGeometry x="660" y="20" width="80" height="60" as="geometry" />
        </mxCell>
        <mxCell id="Y8Q3fPFExiWNxJeJG4X3-62" value="" style="edgeStyle=orthogonalEdgeStyle;rounded=0;orthogonalLoop=1;jettySize=auto;html=1;" edge="1" parent="1" source="Y8Q3fPFExiWNxJeJG4X3-42" target="Y8Q3fPFExiWNxJeJG4X3-48">
          <mxGeometry relative="1" as="geometry" />
        </mxCell>
        <mxCell id="Y8Q3fPFExiWNxJeJG4X3-63" value="" style="edgeStyle=orthogonalEdgeStyle;rounded=0;orthogonalLoop=1;jettySize=auto;html=1;" edge="1" parent="1" source="Y8Q3fPFExiWNxJeJG4X3-43" target="Y8Q3fPFExiWNxJeJG4X3-50">
          <mxGeometry relative="1" as="geometry" />
        </mxCell>
        <mxCell id="Y8Q3fPFExiWNxJeJG4X3-70" style="edgeStyle=orthogonalEdgeStyle;rounded=0;orthogonalLoop=1;jettySize=auto;html=1;exitX=0.5;exitY=0;exitDx=0;exitDy=0;entryX=0.5;entryY=1;entryDx=0;entryDy=0;" edge="1" parent="1" source="Y8Q3fPFExiWNxJeJG4X3-51" target="Y8Q3fPFExiWNxJeJG4X3-61">
          <mxGeometry relative="1" as="geometry" />
        </mxCell>
        <mxCell id="Y8Q3fPFExiWNxJeJG4X3-72" style="edgeStyle=orthogonalEdgeStyle;rounded=0;orthogonalLoop=1;jettySize=auto;html=1;exitX=1;exitY=0.5;exitDx=0;exitDy=0;entryX=0.5;entryY=0;entryDx=0;entryDy=0;" edge="1" parent="1" source="Y8Q3fPFExiWNxJeJG4X3-61" target="Y8Q3fPFExiWNxJeJG4X3-52">
          <mxGeometry relative="1" as="geometry" />
        </mxCell>
        <mxCell id="Y8Q3fPFExiWNxJeJG4X3-73" value="" style="edgeStyle=orthogonalEdgeStyle;rounded=0;orthogonalLoop=1;jettySize=auto;html=1;" edge="1" parent="1" source="Y8Q3fPFExiWNxJeJG4X3-52" target="Y8Q3fPFExiWNxJeJG4X3-45">
          <mxGeometry relative="1" as="geometry" />
        </mxCell>
        <mxCell id="Y8Q3fPFExiWNxJeJG4X3-79" value="" style="edgeStyle=orthogonalEdgeStyle;rounded=0;orthogonalLoop=1;jettySize=auto;html=1;" edge="1" parent="1" source="Y8Q3fPFExiWNxJeJG4X3-48" target="Y8Q3fPFExiWNxJeJG4X3-78">
          <mxGeometry relative="1" as="geometry" />
        </mxCell>
        <mxCell id="Y8Q3fPFExiWNxJeJG4X3-81" value="&lt;font style=&quot;font-size: 22px;&quot;&gt;Temperature Monitoring and Warning LED Software Architecture&lt;/font&gt;" style="text;html=1;align=center;verticalAlign=middle;whiteSpace=wrap;rounded=0;" vertex="1" parent="1">
          <mxGeometry x="100" y="40" width="720" height="50" as="geometry" />
        </mxCell>
      </root>
    </mxGraphModel>
  </diagram>
</mxfile>
